<?xml version="1.0" encoding="iso-8859-1"?>
<!-- Generator: Adobe Illustrator 19.1.1, SVG Export Plug-In . SVG Version: 6.00 Build 0)  -->
<svg version="1.1" id="Layer_1" xmlns="http://www.w3.org/2000/svg" xmlns:xlink="http://www.w3.org/1999/xlink" x="0px" y="0px"
	 viewBox="0 0 48 48" style="enable-background:new 0 0 48 48;" xml:space="preserve">
<rect x="14" y="15" style="fill:#BF360C;" width="16" height="18"/>
<rect x="14" y="15" style="fill:#BF360C;" width="16" height="18"/>
<rect x="14" y="15" style="fill:#4E342E;" width="16" height="18"/>
<path style="fill:#FF9800;" d="M22,37c-2.193,0-5-6-5-6v-6h10v6C27,31,24.192,37,22,37"/>
<path style="fill:#FFB74D;" d="M31,14c0-7.635-18-4.971-18,0v7c0,4.971,4.028,9,9,9c4.971,0,9-4.029,9-9V14z"/>
<path style="fill:#795548;" d="M22,4C15.925,4,7,7.404,7,27.286L14,32V19l12-7l4,5v15l7-6c0-4.025-0.674-20-11-20l-1-2H22z"/>
<path style="fill:#FFB74D;" d="M22,38c-4.42,0-5-7-5-7s2.507,4,5,4s5-4,5-4S26.42,38,22,38"/>
<path style="fill:#784719;" d="M25,21c0,0.551,0.448,1,1,1s1-0.449,1-1s-0.448-1-1-1S25,20.449,25,21"/>
<path style="fill:#784719;" d="M17,21c0,0.551,0.448,1,1,1s1-0.449,1-1s-0.448-1-1-1S17,20.449,17,21"/>
<path style="fill:#FF9800;" d="M22,37c-2.193,0-5-6-5-6v-6h10v6C27,31,24.192,37,22,37"/>
<path style="fill:#FFB74D;" d="M31,14c0-7.635-18-4.971-18,0v7c0,4.971,4.028,9,9,9c4.971,0,9-4.029,9-9V14z"/>
<path style="fill:#795548;" d="M22,4C15.925,4,7,7.404,7,27.286L14,32V19l12-7l4,5v15l7-6c0-4.025-0.674-20-11-20l-1-2H22z"/>
<path style="fill:#FFB74D;" d="M22,38c-4.42,0-5-7-5-7s2.507,4,5,4s5-4,5-4S26.42,38,22,38"/>
<path style="fill:#784719;" d="M25,21c0,0.551,0.448,1,1,1s1-0.449,1-1s-0.448-1-1-1S25,20.449,25,21"/>
<path style="fill:#784719;" d="M17,21c0,0.551,0.448,1,1,1s1-0.449,1-1s-0.448-1-1-1S17,20.449,17,21"/>
<path style="fill:#4FC3F7;" d="M27,31L27,31c0,0-1,4-5,4s-5-4-5-4S6,32.986,6,44h32C38,33.025,27,31,27,31"/>
<path style="fill:#FF9800;" d="M22,37c-2.193,0-5-6-5-6v-6h10v6C27,31,24.192,37,22,37"/>
<path style="fill:#FFB74D;" d="M31,14c0-7.635-18-4.971-18,0v7c0,4.971,4.028,9,9,9c4.971,0,9-4.029,9-9V14z"/>
<path style="fill:#795548;" d="M22,4C15.925,4,7,7.404,7,27.286L14,32V19l12-7l4,5v15l7-6c0-4.025-0.674-20-11-20l-1-2H22z"/>
<path style="fill:#FFB74D;" d="M22,38c-4.42,0-5-7-5-7s2.507,4,5,4s5-4,5-4S26.42,38,22,38"/>
<path style="fill:#01579B;" d="M22,40c4.746,0,6.571-5.115,6.949-8.428C27.793,31.148,27,31,27,31s-0.58,7-5,7c-4.42,0-5-7-5-7
	s-0.794,0.145-1.95,0.566C15.427,34.878,17.251,40,22,40z"/>
<path style="fill:#784719;" d="M25,21c0-0.551,0.448-1,1-1s1,0.449,1,1s-0.448,1-1,1S25,21.551,25,21 M17,21c0,0.551,0.448,1,1,1
	s1-0.449,1-1s-0.448-1-1-1S17,20.449,17,21"/>
<g>
	<rect x="40" y="12" style="fill:#1976D2;" width="3" height="11"/>
	<path style="fill:#1976D2;" d="M43,8c0-1.105-0.895-2-2-2s-2,0.895-2,2c0,1.105,0.895,2,2,2S43,9.105,43,8"/>
	<rect x="38" y="12" style="fill:#1976D2;" width="3" height="3"/>
</g>
</svg>
